<svg width="32" height="32" viewBox="0 0 32 32" fill="none" xmlns="http://www.w3.org/2000/svg">
  <!-- HUMSJ Logo Favicon -->
  <rect width="32" height="32" rx="6" fill="#10b981"/>
  
  <!-- Mosque silhouette -->
  <path d="M6 26 L6 20 Q6 18 8 18 L12 18 Q14 18 14 20 L14 26 Z M14 26 L14 16 Q14 14 16 14 L16 14 Q18 14 18 16 L18 26 Z M18 26 L18 20 Q18 18 20 18 L24 18 Q26 18 26 20 L26 26 Z" fill="white"/>
  <ellipse cx="16" cy="14" rx="6" ry="3" fill="white"/>
  <rect x="10" y="8" width="1.5" height="8" fill="white"/>
  <rect x="20.5" y="8" width="1.5" height="8" fill="white"/>
  <ellipse cx="10.75" cy="8" rx="1.5" ry="2" fill="white"/>
  <ellipse cx="21.25" cy="8" rx="1.5" ry="2" fill="white"/>
  
  <!-- Crescent and star -->
  <path d="M10.75 6 Q9.5 4 10.75 2 Q12 4.5 10.75 6" fill="#d4a853"/>
  <path d="M21.25 6 Q20 4 21.25 2 Q22.5 4.5 21.25 6" fill="#d4a853"/>
  
  <!-- Arabic text representation -->
  <text x="16" y="30" text-anchor="middle" fill="white" font-size="4" font-family="serif">حمسج</text>
</svg>