<svg width="200" height="120" viewBox="0 0 200 120" xmlns="http://www.w3.org/2000/svg">
  <defs>
    <linearGradient id="mosqueGradient" x1="0%" y1="0%" x2="100%" y2="100%">
      <stop offset="0%" style="stop-color:#d4a853;stop-opacity:0.3" />
      <stop offset="100%" style="stop-color:#2d5a3d;stop-opacity:0.2" />
    </linearGradient>
  </defs>
  
  <!-- Main mosque structure -->
  <path d="M20 100 L20 70 Q20 65 25 65 L45 65 Q50 65 50 70 L50 100 Z" fill="url(#mosqueGradient)"/>
  <path d="M50 100 L50 60 Q50 55 55 55 L85 55 Q90 55 90 60 L90 100 Z" fill="url(#mosqueGradient)"/>
  <path d="M90 100 L90 70 Q90 65 95 65 L115 65 Q120 65 120 70 L120 100 Z" fill="url(#mosqueGradient)"/>
  
  <!-- Central dome -->
  <ellipse cx="70" cy="55" rx="25" ry="15" fill="url(#mosqueGradient)"/>
  
  <!-- Minarets -->
  <rect x="30" y="30" width="8" height="40" fill="url(#mosqueGradient)"/>
  <rect x="102" y="30" width="8" height="40" fill="url(#mosqueGradient)"/>
  
  <!-- Minaret tops -->
  <ellipse cx="34" cy="30" rx="6" ry="8" fill="url(#mosqueGradient)"/>
  <ellipse cx="106" cy="30" rx="6" ry="8" fill="url(#mosqueGradient)"/>
  
  <!-- Crescent moons -->
  <path d="M34 22 Q32 18 34 14 Q36 16 34 22" fill="#d4a853"/>
  <path d="M106 22 Q104 18 106 14 Q108 16 106 22" fill="#d4a853"/>
  
  <!-- Central crescent -->
  <path d="M70 40 Q68 36 70 32 Q72 34 70 40" fill="#d4a853"/>
  
  <!-- Arched windows -->
  <path d="M60 75 Q60 70 65 70 Q70 70 70 75 L70 85 L60 85 Z" fill="rgba(212, 168, 83, 0.4)"/>
  <path d="M75 75 Q75 70 80 70 Q85 70 85 75 L85 85 L75 85 Z" fill="rgba(212, 168, 83, 0.4)"/>
</svg>